<?xml version="1.0" encoding="UTF-8" standalone="no"?>
<!-- Generator: Adobe Illustrator 19.0.0, SVG Export Plug-In . SVG Version: 6.00 Build 0)  -->

<svg
   xmlns:dc="http://purl.org/dc/elements/1.1/"
   xmlns:cc="http://creativecommons.org/ns#"
   xmlns:rdf="http://www.w3.org/1999/02/22-rdf-syntax-ns#"
   xmlns:svg="http://www.w3.org/2000/svg"
   xmlns="http://www.w3.org/2000/svg"
   xmlns:sodipodi="http://sodipodi.sourceforge.net/DTD/sodipodi-0.dtd"
   xmlns:inkscape="http://www.inkscape.org/namespaces/inkscape"
   version="1.1"
   id="Layer_1"
   x="0px"
   y="0px"
   viewBox="0 0 25 25"
   xml:space="preserve"
   inkscape:version="0.91 r"
   sodipodi:docname="info.svg"
   width="25"
   height="25"><metadata
     id="metadata11"><rdf:RDF><cc:Work
         rdf:about=""><dc:format>image/svg+xml</dc:format><dc:type
           rdf:resource="http://purl.org/dc/dcmitype/StillImage" /><dc:title></dc:title></cc:Work></rdf:RDF></metadata><defs
     id="defs9" /><sodipodi:namedview
     pagecolor="#ffffff"
     bordercolor="#666666"
     borderopacity="1"
     objecttolerance="10"
     gridtolerance="10"
     guidetolerance="10"
     inkscape:pageopacity="0"
     inkscape:pageshadow="2"
     inkscape:window-width="1920"
     inkscape:window-height="1028"
     id="namedview7"
     showgrid="false"
     inkscape:zoom="2.4583333"
     inkscape:cx="-37.016949"
     inkscape:cy="48"
     inkscape:window-x="0"
     inkscape:window-y="25"
     inkscape:window-maximized="1"
     inkscape:current-layer="Layer_1" /><style
     type="text/css"
     id="style3">
	.st0{fill:#333333;}
</style><g
     id="g8072"
     transform="matrix(0.38333333,0,0,0.38333333,-5.8999998,-5.8999998)"><path
       id="XMLID_6_"
       class="st0"
       d="m 48.5,74.8 c 0,-0.4 -0.2,-0.5 -0.5,-0.5 -1.3,0 -2.4,-0.5 -3.4,-1.4 C 43.7,72 43.2,70.8 43.2,69.5 43.2,69.1 43,69 42.7,69 c -0.3,0 -0.5,0.2 -0.5,0.5 0,1.6 0.6,3 1.7,4.2 1.1,1.1 2.5,1.7 4.2,1.7 0.3,-0.1 0.4,-0.3 0.4,-0.6 z m 27.4,-9.7 c 0,1.2 -0.4,2.2 -1.3,3 -0.8,0.8 -1.9,1.3 -3,1.3 l -15,0 c 0,2.4 -0.8,4.4 -2.5,6.1 -1.7,1.7 -3.7,2.5 -6.1,2.5 -2.4,0 -4.4,-0.8 -6.1,-2.5 -1.7,-1.7 -2.5,-3.7 -2.5,-6.1 l -15,0 c -1.2,0 -2.2,-0.4 -3,-1.3 -0.8,-0.9 -1.3,-1.9 -1.3,-3 1.1,-0.9 2.1,-1.9 3,-2.9 0.9,-1 1.9,-2.4 2.8,-4 1,-1.6 1.8,-3.4 2.5,-5.3 0.7,-1.9 1.2,-4.2 1.7,-6.9 0.4,-2.7 0.7,-5.6 0.7,-8.7 0,-3.4 1.3,-6.5 3.9,-9.5 2.6,-2.9 6,-4.7 10.3,-5.3 -0.2,-0.4 -0.3,-0.9 -0.3,-1.3 0,-0.9 0.3,-1.7 0.9,-2.3 0.6,-0.6 1.4,-0.9 2.3,-0.9 0.9,0 1.7,0.3 2.3,0.9 0.6,0.6 0.9,1.4 0.9,2.3 0,0.4 -0.1,0.9 -0.3,1.3 4.2,0.6 7.7,2.4 10.3,5.3 2.6,2.9 3.9,6.1 3.9,9.5 0,3.1 0.2,6 0.7,8.7 0.4,2.7 1,5 1.7,6.9 0.7,1.9 1.5,3.7 2.5,5.3 1,1.6 1.9,3 2.8,4 1,1 2,2 3.2,2.9 z"
       inkscape:connector-curvature="0"
       style="fill:#93cede" /></g></svg>